<svg width="1560" height="385" xmlns="http://www.w3.org/2000/svg">

 <g>
  <title>background</title>
  <rect fill="none" id="canvas_background" height="402" width="582" y="-1" x="-1"/>
 </g>
 <g>
  <title>Layer 1</title>
  <path id="svg_1" fill="#0B395A" d="m314.777,35.4583c-6.803,-5.0033 -16.292,-7.4893 -28.467,-7.458l-42.42,0l0,50.658l-168.6654,0l0,189.9017l189.7494,0l0,-168.8598l23.182,0c11.713,0 20.708,-6.7919 27.174,-13.0022c6.465,-6.2103 9.67,-15.1506 9.67,-26.8113c0,-11.3386 -3.401,-19.4971 -10.204,-24.4753l-0.019,0.0469zm-70.868,211.9667l-147.5543,0l0,-147.6779l147.5353,0l0.019,147.6779zm57.993,-175.4929c-2.038,2.5123 -4.865,4.2611 -8.021,4.9626c-4.395,1.1529 -8.921,1.7299 -13.465,1.7167l-15.442,0l0,-33.772l15.826,0c4.495,-0.1106 8.984,0.3912 13.344,1.4916c3.141,0.7778 5.917,2.6168 7.861,5.2065c1.781,2.5017 2.668,5.9414 2.661,10.3193c0,4.3028 -0.937,7.655 -2.811,10.0565"/>
  <path id="svg_2" fill="#3A80AC" d="m202.999,119.665l-168.999,0l0,237.165l21.1307,0l0,-47.268l147.8683,0l0,47.268l21.121,0l0,-47.268l0,-189.897l-21.121,0zm-147.8683,21.097l147.8683,0l0,147.704l-147.8683,0l0,-147.704z"/>
  <path id="svg_3" fill="#0B395A" d="m709.294,128.793c0,10.002 -3.224,17.681 -9.674,23.038c-6.449,5.357 -15.614,8.013 -27.496,7.968l-8.715,0l0,33.191l-20.409,0l0,-93.353l30.613,0c11.62,0 20.455,2.434 26.504,7.301c6.05,4.868 9.109,12.153 9.177,21.855zm-45.885,14.803l6.677,0c6.244,0 10.918,-1.2 14.023,-3.601c1.571,-1.269 2.811,-2.883 3.62,-4.708c0.81,-1.825 1.165,-3.81 1.037,-5.794c0,-4.634 -1.302,-8.063 -3.904,-10.286c-2.585,-2.2 -6.66,-3.334 -12.225,-3.334l-9.228,0l0,27.723z"/>
  <path id="svg_4" fill="#0B395A" d="m797.22,157.714c0,11.466 -3.11,20.436 -9.33,26.91c-6.23,6.474 -14.91,9.711 -26.035,9.711c-6.437,0.129 -12.794,-1.405 -18.421,-4.444c-5.316,-2.959 -9.592,-7.403 -12.27,-12.755c-2.964,-6.062 -4.426,-12.713 -4.27,-19.422c0,-11.51 3.09,-20.458 9.27,-26.844c6.18,-6.386 14.873,-9.579 26.081,-9.579c6.437,-0.124 12.795,1.397 18.435,4.411c5.31,2.93 9.58,7.347 12.26,12.673c2.98,6.027 4.45,12.654 4.28,19.339zm-50.16,0c0,6.979 1.187,12.262 3.542,15.817c2.356,3.555 6.203,5.366 11.524,5.366c5.321,0 9.064,-1.778 11.384,-5.333c2.33,-3.555 3.39,-8.822 3.39,-15.85c0,-7.028 -1.17,-12.196 -3.5,-15.685c-2.34,-3.49 -6.173,-5.234 -11.494,-5.234c-5.321,0 -9.084,1.745 -11.422,5.201c-2.339,3.456 -3.508,8.707 -3.508,15.718"/>
  <path id="svg_5" fill="#0B395A" d="m841.88,92.872l-18.94,0l0,100.118l18.94,0l0,-100.118z"/>
  <path id="svg_6" fill="#0B395A" d="m874.35,102.452c0,-6.387 3.38,-9.58 10.13,-9.58c6.76,0 10.14,3.193 10.15,9.58c0.08,1.306 -0.11,2.615 -0.55,3.84c-0.43,1.225 -1.11,2.339 -1.99,3.269c-2.12,1.859 -4.85,2.775 -7.61,2.555c-6.74,0 -10.12,-3.222 -10.13,-9.664zm19.44,90.538l-18.64,0l0,-71.933l18.64,0l0,71.933z"/>
  <path id="svg_7" fill="#0B395A" d="m954.81,194.343c-22.07,0 -33.1,-12.039 -33.1,-36.115c0,-11.962 3,-21.108 9,-27.44c6,-6.332 14.6,-9.498 25.79,-9.498c7.62,-0.123 15.16,1.517 22.03,4.79l-5.69,14.815c-3.05,-1.218 -5.88,-2.217 -8.5,-2.996c-2.55,-0.765 -5.19,-1.158 -7.86,-1.169c-10.06,0 -15.09,7.1 -15.08,21.3c0,13.794 5.03,20.686 15.08,20.675c3.5,0.03 6.98,-0.469 10.33,-1.482c3.37,-1.081 6.57,-2.639 9.5,-4.625l0,16.461c-2.9,1.881 -6.1,3.266 -9.47,4.098c-3.97,0.835 -8.02,1.216 -12.08,1.136"/>
  <path id="svg_8" fill="#0B395A" d="m996.12,121.284l21.72,0l13.75,41.23c1.27,4.136 2.07,8.404 2.39,12.722l0.39,0c0.44,-4.337 1.38,-8.606 2.81,-12.722l13.44,-41.23l21.26,0l-30.78,82.666c-2.23,6.796 -6.43,12.761 -12.06,17.122c-5.33,3.848 -11.75,5.86 -18.3,5.736c-3.39,0 -6.77,-0.373 -10.07,-1.113l0,-15.838c2.56,0.582 5.17,0.863 7.79,0.839c3.35,0.058 6.62,-1.09 9.21,-3.236c2.91,-2.629 5.04,-6.027 6.14,-9.811l1.17,-3.596l-28.86,-72.769z"/>
  <path id="svg_9" fill="#0B395A" d="m1162.53,128.793c0,10.002 -3.03,17.681 -9.08,23.038c-6.05,5.357 -14.67,8.013 -25.86,7.968l-8.19,0l0,33.191l-19.11,0l0,-93.353l28.78,0c10.92,0 19.23,2.434 24.93,7.301c5.7,4.868 8.54,12.136 8.53,21.805l0,0.05zm-43.13,14.753l6.29,0c5.88,0 10.27,-1.2 13.18,-3.601c1.47,-1.272 2.64,-2.886 3.4,-4.71c0.76,-1.824 1.1,-3.809 0.98,-5.792c0,-4.634 -1.22,-8.063 -3.67,-10.285c-2.45,-2.201 -6.28,-3.335 -11.49,-3.335l-8.69,0l0,27.723z"/>
  <path id="svg_10" fill="#0B395A" d="m1230.92,193.142l-3.61,-9.556l-0.48,0c-2.59,3.54 -5.94,6.411 -9.79,8.383c-4.14,1.734 -8.58,2.534 -13.05,2.347c-6.52,0 -11.69,-1.928 -15.51,-5.784c-3.81,-3.856 -5.7,-9.344 -5.66,-16.463c0,-7.455 2.54,-12.954 7.62,-16.497c5.08,-3.543 12.73,-5.505 22.96,-5.885l11.86,-0.368l0,-3.085c0,-7.12 -3.54,-10.679 -10.63,-10.679c-5.44,0 -11.86,1.676 -19.26,5.029l-6.19,-12.943c8.07,-4.28 17.03,-6.462 26.1,-6.353c9.16,0 16.2,2.056 21.1,6.169c4.91,4.113 7.35,10.355 7.33,18.727l0,46.824l-12.79,0.134zm-5.51,-32.557l-7.21,0.251c-5.43,0.168 -9.46,1.174 -12.12,3.018c-1.3,0.93 -2.35,2.189 -3.05,3.658c-0.69,1.468 -1.01,3.095 -0.91,4.724c0,5.399 3.01,8.098 9.05,8.098c1.88,0.094 3.77,-0.195 5.55,-0.851c1.77,-0.656 3.41,-1.665 4.81,-2.972c1.3,-1.322 2.32,-2.914 2.99,-4.67c0.67,-1.757 0.97,-3.639 0.89,-5.523l0,-5.733z"/>
  <path id="svg_11" fill="#0B395A" d="m1295.12,92.872l-20.3,0l0,100.118l20.3,0l0,-100.118z"/>
  <path id="svg_16" fill="#3A80AC" d="m497.048,292.836c0.077,1.839 -0.253,3.672 -0.961,5.345c-0.708,1.673 -1.774,3.136 -3.109,4.269c-3.283,2.495 -7.246,3.71 -11.244,3.446c-4.029,0.163 -8.041,-0.667 -11.734,-2.43l0,-7.098c1.971,0.998 4.03,1.777 6.144,2.326c1.979,0.54 4.01,0.823 6.05,0.844c2.141,0.17 4.273,-0.436 6.065,-1.723c0.632,-0.54 1.139,-1.235 1.477,-2.029c0.339,-0.793 0.5,-1.663 0.471,-2.537c0.008,-0.826 -0.148,-1.645 -0.457,-2.4c-0.308,-0.755 -0.763,-1.429 -1.333,-1.976c-2.253,-1.813 -4.746,-3.243 -7.395,-4.239c-3.127,-1.16 -5.933,-3.164 -8.156,-5.823c-1.605,-2.24 -2.444,-5.017 -2.375,-7.857c-0.072,-1.722 0.231,-3.439 0.883,-5.01c0.652,-1.572 1.635,-2.954 2.87,-4.035c2.908,-2.342 6.474,-3.512 10.088,-3.308c4.17,0.028 8.287,1.014 12.082,2.894l-2.201,6.134c-3.161,-1.577 -6.579,-2.456 -10.056,-2.584c-1.812,-0.136 -3.611,0.425 -5.083,1.585c-0.567,0.508 -1.018,1.152 -1.317,1.881c-0.3,0.729 -0.44,1.524 -0.409,2.323c-0.032,1.072 0.209,2.134 0.697,3.066c0.579,0.98 1.36,1.8 2.28,2.395c1.826,1.17 3.738,2.173 5.717,2.998c2.417,0.995 4.71,2.314 6.825,3.929c1.343,1.077 2.429,2.489 3.167,4.117c0.711,1.697 1.058,3.547 1.014,5.41"/>
  <path id="svg_17" fill="#3A80AC" d="m537.228,305.931l-7.435,0l0,-20.475c0.155,-2.003 -0.372,-4 -1.501,-5.695c-0.575,-0.648 -1.304,-1.156 -2.126,-1.483c-0.822,-0.326 -1.714,-0.461 -2.601,-0.393c-1.196,-0.091 -2.396,0.103 -3.492,0.566c-1.097,0.463 -2.055,1.179 -2.788,2.084c-1.334,1.777 -2.001,4.729 -2.001,8.855l0,16.541l-7.402,0l0,-33.214l5.797,0l1.035,4.361l0.345,0c0.977,-1.605 2.446,-2.886 4.21,-3.67c1.886,-0.873 3.959,-1.318 6.055,-1.3c5.349,0 8.897,1.745 10.645,5.234l0.5,0c1.074,-1.66 2.625,-2.991 4.469,-3.835c1.991,-0.948 4.193,-1.422 6.418,-1.383c4.152,0 7.182,1.004 9.091,3.012c1.898,2.008 2.847,5.053 2.847,9.168l0,21.627l-7.487,0l0,-20.475c0.154,-2.007 -0.385,-4.008 -1.536,-5.695c-0.575,-0.648 -1.304,-1.156 -2.126,-1.483c-0.822,-0.326 -1.713,-0.461 -2.601,-0.393c-1.192,-0.096 -2.391,0.088 -3.492,0.535c-1.1,0.448 -2.069,1.146 -2.822,2.033c-1.513,2.364 -2.213,5.121 -2.002,7.883l0,17.595z"/>
  <path id="svg_18" fill="#3A80AC" d="m593.181,305.268l-1.493,-4.895l-0.243,0c-1.332,1.843 -3.082,3.341 -5.105,4.372c-2.093,0.852 -4.342,1.25 -6.598,1.167c-2.95,0.173 -5.848,-0.835 -8.057,-2.804c-1.004,-1.044 -1.781,-2.287 -2.28,-3.648c-0.499,-1.362 -0.71,-2.813 -0.62,-4.261c-0.092,-1.6 0.231,-3.196 0.937,-4.634c0.706,-1.438 1.771,-2.667 3.091,-3.57c2.674,-1.846 6.772,-2.857 12.259,-3.013l6.06,-0.192l0,-1.881c0.136,-1.819 -0.43,-3.621 -1.58,-5.034c-0.644,-0.615 -1.41,-1.087 -2.247,-1.387c-0.837,-0.3 -1.728,-0.421 -2.615,-0.355c-1.768,-0.015 -3.526,0.256 -5.209,0.801c-1.626,0.514 -3.215,1.136 -4.758,1.864l-2.413,-5.33c1.975,-1.032 4.077,-1.799 6.251,-2.282c2.093,-0.503 4.237,-0.766 6.39,-0.784c4.468,0 7.837,0.975 10.106,2.926c2.257,1.951 3.472,5.017 3.472,9.198l0,23.742l-5.348,0zm-11.095,-5.087c2.381,0.12 4.715,-0.692 6.511,-2.264c0.844,-0.823 1.501,-1.818 1.927,-2.918c0.425,-1.1 0.609,-2.28 0.539,-3.458l0,-3.048l-4.497,0.192c-2.66,-0.092 -5.298,0.508 -7.658,1.742c-0.787,0.517 -1.423,1.235 -1.844,2.079c-0.421,0.845 -0.611,1.786 -0.552,2.728c-0.042,0.673 0.063,1.347 0.306,1.975c0.242,0.629 0.618,1.197 1.1,1.666c1.173,0.951 2.665,1.412 4.168,1.289"/>
  <path id="svg_19" fill="#3A80AC" d="m628.608,269.404c1.257,-0.019 2.512,0.095 3.745,0.337l-0.735,7.11c-1.09,-0.257 -2.206,-0.389 -3.325,-0.391c-1.355,-0.054 -2.706,0.184 -3.964,0.698c-1.258,0.515 -2.394,1.295 -3.333,2.289c-0.946,1.041 -1.68,2.261 -2.16,3.591c-0.48,1.33 -0.698,2.743 -0.64,4.158l0,18.735l-7.49,0l0,-35.87l5.88,0l0.997,6.328l0.368,0c1.096,-2.054 2.67,-3.805 4.585,-5.101c1.803,-1.224 3.921,-1.879 6.09,-1.884"/>
  <path id="svg_20" fill="#3A80AC" d="m654.187,300.126c1.773,-0.001 3.536,-0.278 5.225,-0.82l0,5.404c-0.982,0.398 -2.002,0.689 -3.045,0.869c-1.279,0.238 -2.577,0.356 -3.877,0.352c-6.755,0 -10.133,-3.586 -10.133,-10.757l0,-18.185l-4.592,0l0,-3.179l4.991,-2.627l2.296,-7.193l4.393,0l0,7.511l9.567,0l0,5.437l-9.567,0l0,18.068c-0.06,0.695 0.024,1.394 0.248,2.053c0.223,0.66 0.581,1.265 1.05,1.779c0.908,0.83 2.101,1.273 3.328,1.237"/>
  <path id="svg_21" fill="#3A80AC" d="m697.294,259.931l-6.765,0l0,46l6.765,0l0,-46z"/>
  <path id="svg_22" fill="#3A80AC" d="m739.236,305.931l-6.552,0l0,-20.425c0.137,-2.03 -0.367,-4.05 -1.429,-5.728c-0.575,-0.673 -1.286,-1.194 -2.077,-1.522c-0.79,-0.329 -1.64,-0.455 -2.484,-0.371c-1.133,-0.114 -2.276,0.066 -3.333,0.524c-1.057,0.458 -1.999,1.181 -2.747,2.11c-1.277,1.777 -1.916,4.723 -1.916,8.871l0,16.541l-6.521,0l0,-33.214l5.107,0l0.913,4.362l0.334,0c0.949,-1.618 2.319,-2.895 3.937,-3.671c1.774,-0.878 3.705,-1.322 5.655,-1.3c7.358,0 11.042,4.06 11.052,12.18l0.061,21.643z"/>
  <path id="svg_23" fill="#3A80AC" d="m775.695,296.01c0.071,1.415 -0.196,2.826 -0.777,4.107c-0.582,1.28 -1.459,2.39 -2.553,3.229c-2.849,1.878 -6.193,2.772 -9.557,2.552c-3.446,0.148 -6.879,-0.527 -10.037,-1.971l0,-5.994c3.197,1.653 6.702,2.557 10.269,2.65c4.089,0 6.196,-1.277 6.196,-3.862c0.021,-0.748 -0.221,-1.478 -0.682,-2.052c-0.635,-0.71 -1.392,-1.29 -2.23,-1.712c-1.402,-0.767 -2.851,-1.436 -4.337,-2.004c-2.706,-0.895 -5.194,-2.389 -7.295,-4.379c-1.313,-1.557 -2.001,-3.582 -1.921,-5.655c-0.04,-1.276 0.237,-2.542 0.804,-3.675c0.568,-1.132 1.405,-2.092 2.433,-2.787c2.645,-1.687 5.718,-2.499 8.813,-2.327c3.596,-0.013 7.153,0.786 10.424,2.343l-2.137,5.219c-2.681,-1.285 -5.572,-2.025 -8.519,-2.182c-3.501,0 -5.251,1.034 -5.251,3.119c0.012,0.515 0.142,1.02 0.379,1.473c0.237,0.453 0.575,0.839 0.984,1.128c1.887,1.191 3.891,2.166 5.979,2.908c1.971,0.731 3.857,1.69 5.623,2.86c1.113,0.76 2.017,1.809 2.622,3.044c0.606,1.236 0.893,2.615 0.832,4.001"/>
  <path id="svg_24" fill="#3A80AC" d="m813.326,305.32l-1,-4.345l-0.366,0c-1.05,1.576 -2.521,2.835 -4.25,3.637c-1.966,0.905 -4.115,1.355 -6.283,1.317c-4.066,0 -7.116,-1.004 -9.116,-3.012c-2,-2.008 -3.017,-5.036 -3.017,-9.101l0,-21.709l7.217,0l0,20.54c-0.157,2.027 0.402,4.045 1.583,5.711c0.626,0.68 1.403,1.207 2.271,1.538c0.868,0.332 1.802,0.459 2.729,0.371c1.244,0.109 2.496,-0.074 3.655,-0.535c1.158,-0.46 2.19,-1.185 3.011,-2.115c1.416,-1.777 2.116,-4.74 2.116,-8.92l0,-16.59l7.183,0l0,33.213l-5.733,0z"/>
  <path id="svg_25" fill="#3A80AC" d="m848.922,269.404c1.329,-0.019 2.656,0.095 3.961,0.338l-0.781,7.109c-1.158,-0.257 -2.344,-0.388 -3.533,-0.391c-1.439,-0.051 -2.874,0.189 -4.21,0.703c-1.336,0.515 -2.543,1.293 -3.543,2.284c-2.017,2.109 -3.08,4.894 -2.957,7.749l0,18.735l-7.976,0l0,-35.87l6.247,0l1.041,6.328l0.409,0c1.161,-2.057 2.834,-3.809 4.872,-5.101c1.916,-1.224 4.167,-1.879 6.47,-1.884"/>
  <path id="svg_26" fill="#3A80AC" d="m882.954,305.268l-1.425,-4.895l-0.232,0c-1.272,1.843 -2.942,3.341 -4.873,4.372c-1.998,0.852 -4.144,1.25 -6.299,1.167c-2.815,0.173 -5.582,-0.835 -7.69,-2.804c-0.959,-1.044 -1.7,-2.287 -2.176,-3.648c-0.477,-1.362 -0.678,-2.813 -0.592,-4.261c-0.088,-1.6 0.221,-3.196 0.895,-4.634c0.673,-1.438 1.69,-2.667 2.95,-3.57c2.553,-1.846 6.464,-2.857 11.702,-3.013l5.784,-0.192l0,-1.881c0.129,-1.819 -0.41,-3.621 -1.508,-5.034c-0.615,-0.615 -1.346,-1.087 -2.145,-1.387c-0.799,-0.3 -1.649,-0.421 -2.496,-0.355c-1.687,-0.015 -3.366,0.256 -4.972,0.801c-1.552,0.514 -3.069,1.136 -4.542,1.864l-2.303,-5.33c1.885,-1.032 3.891,-1.799 5.966,-2.282c1.999,-0.503 4.045,-0.766 6.1,-0.784c4.254,0 7.469,0.975 9.646,2.926c2.155,1.951 3.315,5.017 3.315,9.198l0,23.742l-5.105,0zm-10.591,-5.087c2.273,0.12 4.501,-0.692 6.216,-2.264c0.805,-0.823 1.432,-1.818 1.839,-2.918c0.406,-1.1 0.581,-2.28 0.514,-3.458l0,-3.048l-4.293,0.192c-2.538,-0.092 -5.057,0.508 -7.309,1.742c-0.751,0.517 -1.359,1.235 -1.76,2.079c-0.402,0.845 -0.584,1.786 -0.527,2.728c-0.04,0.673 0.06,1.347 0.291,1.975c0.232,0.629 0.591,1.197 1.051,1.666c1.119,0.951 2.544,1.412 3.978,1.289"/>
  <path id="svg_27" fill="#3A80AC" d="m931.353,305.931l-7.535,0l0,-20.425c0.167,-2.031 -0.413,-4.053 -1.643,-5.728c-0.66,-0.675 -1.476,-1.198 -2.386,-1.526c-0.91,-0.328 -1.888,-0.454 -2.859,-0.367c-1.303,-0.111 -2.616,0.07 -3.831,0.528c-1.215,0.457 -2.299,1.179 -3.161,2.106c-1.469,1.777 -2.203,4.723 -2.203,8.871l0,16.541l-7.5,0l0,-33.214l5.874,0l1.049,4.362l0.385,0c1.091,-1.617 2.667,-2.894 4.528,-3.67c2.045,-0.88 4.272,-1.324 6.52,-1.301c8.461,0 12.692,4.06 12.692,12.18l0.07,21.643z"/>
  <path id="svg_28" fill="#3A80AC" d="m958.324,305.876c-4.826,0 -8.506,-1.557 -11.04,-4.672c-2.492,-3.103 -3.754,-7.566 -3.754,-13.372c0,-5.805 1.309,-10.46 3.927,-13.651c2.618,-3.19 6.404,-4.776 11.356,-4.776c3.125,-0.053 6.221,0.656 9.07,2.074l-2.035,6.015c-2.241,-1.08 -4.64,-1.706 -7.082,-1.848c-5.52,0 -8.275,4.039 -8.265,12.116c-0.205,3.137 0.515,6.262 2.051,8.909c0.717,0.994 1.641,1.783 2.692,2.298c1.052,0.516 2.2,0.745 3.349,0.666c2.995,0.004 5.94,-0.849 8.548,-2.476l0,6.521c-1.205,0.797 -2.513,1.384 -3.88,1.743c-1.64,0.363 -3.311,0.532 -4.984,0.506"/>
  <path id="svg_29" fill="#3A80AC" d="m993.276,305.904c-2.145,0.133 -4.291,-0.225 -6.302,-1.05c-2.012,-0.826 -3.846,-2.101 -5.386,-3.745c-1.458,-1.784 -2.581,-3.868 -3.303,-6.131c-0.723,-2.262 -1.03,-4.66 -0.905,-7.054c0,-5.755 1.302,-10.277 3.907,-13.567c1.344,-1.65 3.007,-2.949 4.867,-3.802c1.86,-0.854 3.87,-1.241 5.883,-1.134c1.847,-0.105 3.694,0.218 5.421,0.948c1.726,0.73 3.292,1.851 4.602,3.29c2.58,3.196 3.9,7.384 3.68,11.65l0,4.045l-21.436,0c-0.085,2.877 0.816,5.684 2.525,7.866c0.874,0.95 1.922,1.687 3.074,2.162c1.152,0.475 2.383,0.677 3.611,0.593c1.781,0.013 3.559,-0.18 5.303,-0.575c1.803,-0.464 3.573,-1.124 5.253,-1.971l0,6.086c-1.6,0.847 -3.3,1.468 -5.046,1.849c-1.923,0.376 -3.874,0.557 -5.828,0.54l0.08,0zm-1.318,-30.815c-0.965,-0.046 -1.927,0.132 -2.825,0.523c-0.898,0.391 -1.71,0.985 -2.384,1.744c-1.431,1.847 -2.253,4.169 -2.334,6.592l14.561,0c0.115,-2.387 -0.568,-4.737 -1.921,-6.609c-0.65,-0.759 -1.443,-1.353 -2.323,-1.741c-0.881,-0.389 -1.827,-0.562 -2.774,-0.509"/>
  <path id="svg_30" fill="#3A80AC" d="m1053.84,276.301l-8.24,0l0,29.63l-7.21,0l0,-29.63l-5.57,0l0,-3.5l5.57,-2.293l0,-2.31c0,-4.166 0.91,-7.263 2.79,-9.276c1.15,-1.083 2.51,-1.909 3.98,-2.426c1.48,-0.518 3.04,-0.716 4.58,-0.584c2.53,0.003 5.04,0.44 7.44,1.295l-1.89,5.688c-1.62,-0.569 -3.31,-0.87 -5.01,-0.893c-0.67,-0.061 -1.35,0.053 -1.96,0.33c-0.62,0.278 -1.16,0.712 -1.58,1.263c-0.85,1.416 -1.24,3.077 -1.12,4.743l0,2.293l8.23,0l-0.01,5.67z"/>
  <path id="svg_31" fill="#3A80AC" d="m1093.68,287.599c0,5.754 -1.49,10.253 -4.47,13.461c-1.61,1.646 -3.56,2.932 -5.72,3.768c-2.16,0.837 -4.47,1.205 -6.79,1.079c-3.09,0.056 -6.15,-0.715 -8.84,-2.232c-2.58,-1.497 -4.63,-3.727 -5.9,-6.399c-1.44,-3.026 -2.15,-6.337 -2.07,-9.677c0,-5.708 1.48,-10.16 4.45,-13.357c1.62,-1.646 3.58,-2.928 5.75,-3.759c2.17,-0.83 4.49,-1.189 6.81,-1.053c2.29,-0.101 4.57,0.291 6.69,1.149c2.12,0.858 4.02,2.162 5.58,3.82c3.15,3.694 4.77,8.431 4.51,13.252l0,-0.052zm-25.98,0.052c0,8.137 3.05,12.206 9.15,12.206c6.09,0 9.1,-4.069 9.03,-12.206c0,-8.044 -3.03,-12.06 -9.1,-12.048c-1.33,-0.113 -2.67,0.115 -3.89,0.661c-1.21,0.547 -2.26,1.394 -3.05,2.46c-1.58,2.705 -2.32,5.809 -2.14,8.927"/>
  <path id="svg_32" fill="#3A80AC" d="m1121.1,269.404c1.25,-0.019 2.5,0.095 3.72,0.338l-0.73,7.109c-1.09,-0.257 -2.21,-0.388 -3.33,-0.391c-1.35,-0.051 -2.7,0.189 -3.96,0.703c-1.26,0.515 -2.39,1.293 -3.33,2.284c-1.9,2.109 -2.9,4.894 -2.79,7.749l0,18.735l-7.5,0l0,-35.87l5.88,0l0.98,6.328l0.38,0c1.09,-2.057 2.67,-3.809 4.59,-5.101c1.8,-1.224 3.92,-1.879 6.09,-1.884"/>
  <path id="svg_33" fill="#3A80AC" d="m1180.29,305.931l-27.05,0l0,-46l27.05,0l0,6.362l-19.24,0l0,12.517l18.02,0l0,6.294l-18.02,0l0,14.448l19.24,0l0,6.379z"/>
  <path id="svg_34" fill="#3A80AC" d="m1200.35,305.931l-11.94,-33.824l7.05,0l6.38,19.661c0.93,2.589 1.6,5.282 1.99,8.028l0.23,0c0.47,-2.728 1.14,-5.413 2,-8.028l6.37,-19.661l7.1,0l-11.98,33.824l-7.2,0z"/>
  <path id="svg_35" fill="#3A80AC" d="m1243.15,305.904c-2.45,0.134 -4.9,-0.224 -7.2,-1.049c-2.3,-0.826 -4.39,-2.102 -6.15,-3.747c-1.67,-1.782 -2.96,-3.865 -3.78,-6.128c-0.83,-2.263 -1.19,-4.661 -1.05,-7.056c-0.28,-4.897 1.31,-9.726 4.48,-13.567c1.54,-1.65 3.44,-2.949 5.56,-3.802c2.13,-0.854 4.42,-1.241 6.72,-1.134c2.11,-0.105 4.22,0.218 6.19,0.948c1.98,0.73 3.77,1.851 5.26,3.29c2.95,3.196 4.46,7.384 4.2,11.649l0,4.046l-24.39,0c-0.1,2.877 0.93,5.683 2.88,7.865c1,0.951 2.2,1.688 3.52,2.163c1.31,0.474 2.72,0.676 4.12,0.593c2.03,0.014 4.05,-0.179 6.04,-0.576c2.07,-0.46 4.09,-1.12 6.02,-1.97l0,6.086c-1.83,0.846 -3.77,1.467 -5.77,1.848c-2.19,0.377 -4.42,0.558 -6.65,0.541l0,0zm-1.42,-30.815c-1.1,-0.048 -2.2,0.129 -3.22,0.52c-1.03,0.391 -1.96,0.986 -2.73,1.747c-1.63,1.847 -2.57,4.169 -2.66,6.592l16.63,0c0.13,-2.387 -0.65,-4.737 -2.2,-6.609c-0.74,-0.759 -1.64,-1.353 -2.65,-1.741c-1,-0.389 -2.09,-0.562 -3.17,-0.509"/>
  <path id="svg_36" fill="#3A80AC" d="m1284.79,269.404c1.25,-0.019 2.51,0.095 3.74,0.337l-0.73,7.11c-1.09,-0.256 -2.21,-0.388 -3.33,-0.391c-1.35,-0.054 -2.7,0.184 -3.96,0.698c-1.25,0.515 -2.39,1.295 -3.33,2.289c-0.94,1.041 -1.68,2.261 -2.16,3.591c-0.48,1.33 -0.69,2.743 -0.64,4.158l0,18.735l-7.5,0l0,-35.87l5.88,0l0.99,6.328l0.46,0c1.09,-2.054 2.67,-3.805 4.58,-5.101c1.8,-1.224 3.92,-1.879 6.09,-1.884"/>
  <path id="svg_37" fill="#3A80AC" d="m1292.59,272.107l7.88,0l6.94,19.149c0.98,2.475 1.68,5.048 2.09,7.673l0.24,0c0.25,-1.377 0.6,-2.736 1.03,-4.07c0.48,-1.59 3.08,-9.152 7.81,-22.685l7.83,0l-14.56,38.147c-2.65,6.995 -7.06,10.492 -13.25,10.492c-1.58,0.006 -3.16,-0.167 -4.7,-0.517l0,-5.688c1.23,0.253 2.48,0.376 3.73,0.367c3.5,0 5.96,-2.001 7.36,-6.005l1.27,-3.169l-13.67,-33.694z"/>
  <path id="svg_38" fill="#3A80AC" d="m1365.62,287.599c0,5.754 -1.49,10.253 -4.48,13.461c-1.6,1.647 -3.55,2.933 -5.7,3.769c-2.16,0.837 -4.47,1.204 -6.79,1.078c-3.1,0.06 -6.15,-0.711 -8.84,-2.232c-2.59,-1.492 -4.65,-3.724 -5.91,-6.399c-1.44,-3.026 -2.15,-6.337 -2.07,-9.677c0,-5.707 1.49,-10.159 4.46,-13.355c1.61,-1.649 3.57,-2.933 5.74,-3.764c2.17,-0.831 4.5,-1.189 6.82,-1.049c2.28,-0.109 4.56,0.275 6.68,1.124c2.12,0.849 4.02,2.144 5.58,3.793c3.15,3.694 4.77,8.43 4.51,13.251l0,0zm-25.99,0c0,8.137 3.05,12.205 9.15,12.205c6.1,0 9.11,-4.068 9.04,-12.205c0,-8.043 -3.04,-12.059 -9.11,-12.048c-1.33,-0.111 -2.67,0.117 -3.88,0.664c-1.21,0.547 -2.26,1.394 -3.04,2.457c-1.6,2.7 -2.35,5.807 -2.16,8.927"/>
  <path id="svg_39" fill="#3A80AC" d="m1407.59,305.931l-7.55,0l0,-20.425c0.16,-2.031 -0.42,-4.053 -1.65,-5.728c-0.66,-0.675 -1.48,-1.198 -2.39,-1.526c-0.91,-0.328 -1.89,-0.454 -2.87,-0.367c-1.3,-0.111 -2.62,0.07 -3.84,0.528c-1.21,0.457 -2.3,1.179 -3.17,2.106c-1.47,1.777 -2.2,4.723 -2.2,8.871l0,16.541l-7.45,0l0,-33.214l5.89,0l1.05,4.362l0.38,0c1.1,-1.617 2.68,-2.894 4.54,-3.67c2.05,-0.88 4.28,-1.324 6.54,-1.301c8.48,0 12.72,4.06 12.72,12.18l0,21.643z"/>
  <path id="svg_40" fill="#3A80AC" d="m1434.34,305.904c-2.14,0.134 -4.29,-0.224 -6.3,-1.049c-2.01,-0.826 -3.84,-2.102 -5.38,-3.747c-1.46,-1.782 -2.59,-3.865 -3.31,-6.128c-0.72,-2.263 -1.03,-4.661 -0.91,-7.056c0,-5.755 1.3,-10.277 3.9,-13.567c1.35,-1.65 3.01,-2.949 4.88,-3.803c1.86,-0.854 3.87,-1.24 5.88,-1.133c1.85,-0.105 3.7,0.218 5.42,0.948c1.73,0.73 3.29,1.851 4.6,3.29c2.57,3.2 3.9,7.385 3.68,11.649l0,4.046l-21.35,0c-0.08,2.877 0.82,5.683 2.53,7.865c0.87,0.953 1.92,1.691 3.07,2.166c1.15,0.475 2.38,0.676 3.61,0.59c1.77,0.012 3.55,-0.181 5.28,-0.576c1.81,-0.46 3.57,-1.12 5.26,-1.97l0,6.086c-1.6,0.849 -3.29,1.47 -5.03,1.848c-1.93,0.376 -3.88,0.557 -5.83,0.541l0,0zm-1.28,-30.815c-0.97,-0.049 -1.93,0.127 -2.83,0.518c-0.9,0.391 -1.71,0.987 -2.38,1.749c-1.43,1.847 -2.25,4.169 -2.33,6.592l14.54,0c0.12,-2.386 -0.55,-4.739 -1.91,-6.609c-0.65,-0.759 -1.44,-1.353 -2.32,-1.741c-0.88,-0.389 -1.83,-0.562 -2.77,-0.509"/>
 </g>
</svg>