<svg width="1920" height="1794" viewBox="0 0 1920 1794" fill="none" xmlns="http://www.w3.org/2000/svg">
<path d="M-375.573 1219.13C-363.434 1135.8 -452.918 836.795 -317.305 819.12C-181.693 801.445 129.726 1138.54 275.369 1134.29C421.012 1130.04 255.697 829.138 381.781 798.711C507.866 768.284 742.453 1002.56 880.574 988.242C1018.69 973.922 880.059 708.727 1044.76 729.978C1209.46 751.23 1508.94 1072.35 1671.14 1090.25C1833.33 1108.15 1701.21 851.676 1823.29 815.88C1945.36 780.084 2132 950.199 2257.08 918.43C2382.16 886.66 2276.03 664.955 2423.67 663.388C2571.32 661.821 2819.15 913.816 2965.8 910.907C3112.44 907.997 3093.87 703.898 3127.58 649.422" stroke="url(#paint0_linear_2474_2284)" stroke-width="2" stroke-linecap="round"/>
<path d="M-285.874 1244.59C-279.428 1163 -383.966 872.828 -254.931 852.967C-125.896 833.106 193.996 1156.21 333.494 1149.26C472.993 1142.31 295.566 851.736 414.661 819.61C533.756 787.483 773.499 1011.69 905.15 995.052C1036.8 978.419 887.207 722.189 1046.59 739.771C1205.96 757.354 1513.4 1065.09 1670.17 1079.45C1826.93 1093.8 1684.14 845.963 1799.05 808.672C1913.96 771.381 2103.69 933.867 2221.73 900.449C2339.78 867.031 2224.09 652.634 2365.68 648.267C2507.27 643.9 2760.83 885.145 2901.37 879.486C3041.92 873.828 3011.35 674.936 3040.29 621.107" stroke="url(#paint1_linear_2474_2284)" stroke-width="2" stroke-linecap="round"/>
<path d="M-196.501 1267.45C-195.435 1187.72 -313.839 906.618 -191.386 884.767C-68.9324 862.916 257.982 1172.02 391.276 1162.56C524.569 1153.11 336.266 873.013 448.422 839.385C560.578 805.758 804.459 1019.9 929.623 1001.15C1054.79 982.399 895.317 735.278 1049.21 749.377C1203.1 763.475 1517.11 1057.82 1668.29 1068.82C1819.47 1079.82 1667.05 840.759 1774.87 802.173C1882.69 763.587 2074.75 918.478 2185.82 883.611C2296.9 848.744 2172.55 641.787 2308.01 634.812C2443.47 627.837 2701.66 858.344 2836.04 850.129C2970.42 841.914 2928.65 648.453 2953.02 595.38" stroke="url(#paint2_linear_2474_2284)" stroke-width="2" stroke-linecap="round"/>
<path d="M-107.688 1287.69C-111.685 1209.95 -242.76 938.148 -126.874 914.503C-10.9874 890.858 321.519 1185.97 448.565 1174.2C575.612 1162.43 377.666 892.954 482.95 858.025C588.233 823.095 835.251 1027.21 953.927 1006.54C1072.6 985.863 904.344 747.981 1052.6 758.783C1200.85 769.586 1520.07 1050.56 1665.53 1058.39C1810.99 1066.22 1649.99 836.064 1750.81 796.383C1851.63 756.702 2045.3 904.041 2149.47 867.923C2253.63 831.806 2121.53 632.41 2250.81 623.02C2380.09 613.629 2641.84 833.427 2770 822.848C2898.17 812.27 2846 624.452 2865.99 572.243" stroke="url(#paint3_linear_2474_2284)" stroke-width="2" stroke-linecap="round"/>
<path d="M-19.6666 1305.35C-28.4019 1229.68 -170.947 967.403 -61.5958 942.16C47.7551 916.917 384.442 1198.06 505.218 1184.18C625.994 1170.3 419.633 911.55 518.13 875.516C616.627 839.482 865.795 1033.62 978.003 1011.22C1090.21 988.813 914.241 760.283 1056.73 767.981C1199.21 775.679 1522.3 1043.31 1661.93 1048.17C1801.56 1053.03 1633.01 831.878 1726.94 791.3C1820.87 750.723 2015.42 890.564 2112.78 853.394C2210.13 816.224 2071.18 624.497 2194.24 612.885C2317.3 601.272 2581.55 810.404 2703.47 797.656C2825.39 784.907 2763.62 602.936 2779.45 551.694" stroke="url(#paint4_linear_2474_2284)" stroke-width="2" stroke-linecap="round"/>
<path d="M67.3335 1320.41C54.1894 1246.94 -98.6234 994.37 4.24218 967.725C107.108 941.079 446.587 1208.32 561.088 1192.51C675.589 1176.71 462.035 928.792 553.847 891.85C645.659 854.907 896.011 1039.13 1001.78 1015.19C1107.56 991.254 924.956 772.17 1061.56 776.956C1198.17 781.742 1523.81 1036.09 1657.51 1038.16C1791.2 1040.24 1616.16 828.2 1703.32 786.923C1790.48 745.645 1985.21 878.055 2075.86 840.029C2166.51 802.003 2021.61 618.036 2138.43 604.396C2255.26 590.757 2520.97 789.283 2636.64 774.559C2752.3 759.836 2681.75 583.898 2693.62 533.724" stroke="url(#paint5_linear_2474_2284)" stroke-width="2" stroke-linecap="round"/>
<path d="M153.089 1332.91C135.871 1261.72 -26.0078 1019.04 70.4395 991.187C166.887 963.332 507.797 1216.75 616.036 1199.21C724.275 1181.68 504.74 944.671 589.985 907.014C675.231 869.358 925.819 1043.74 1025.21 1018.46C1124.61 993.189 936.439 783.627 1067.08 785.696C1197.72 787.765 1524.6 1028.9 1652.3 1028.39C1779.99 1027.88 1599.49 825.028 1680.02 783.244C1760.54 741.461 1954.77 866.52 2038.84 827.832C2122.9 789.143 1972.94 613.013 2083.53 597.541C2194.13 582.068 2460.28 770.069 2569.7 753.565C2679.12 737.061 2600.61 567.33 2608.74 518.321" stroke="url(#paint6_linear_2474_2284)" stroke-width="2" stroke-linecap="round"/>
<path d="M237.38 1342.87C216.424 1274.05 46.6803 1041.41 136.793 1012.54C226.906 983.67 567.915 1223.37 669.922 1204.3C771.929 1185.23 547.614 959.181 626.428 921.002C705.241 882.824 955.141 1047.46 1048.23 1021.04C1141.31 994.625 948.637 794.64 1073.24 794.188C1197.85 793.736 1524.7 1021.78 1646.34 1018.87C1767.97 1015.97 1583.02 822.358 1657.08 780.26C1731.13 738.162 1924.18 855.962 2001.8 816.804C2079.43 777.646 1925.29 609.41 2029.67 592.3C2134.06 575.19 2399.66 752.764 2502.86 734.674C2606.05 716.584 2520.4 553.218 2525.02 505.467" stroke="url(#paint7_linear_2474_2284)" stroke-width="2" stroke-linecap="round"/>
<path d="M319.996 1350.32C295.645 1283.96 119.231 1061.47 203.11 1031.78C286.99 1002.09 626.794 1228.2 722.618 1207.79C818.442 1187.38 590.532 972.318 663.065 933.807C735.597 895.296 983.908 1050.31 1070.77 1022.94C1157.64 995.567 961.502 805.194 1080.02 802.419C1198.54 799.645 1524.13 1014.72 1639.66 1009.62C1755.19 1004.53 1566.82 820.186 1634.57 777.962C1702.33 735.739 1893.54 846.386 1964.88 806.947C2036.22 767.508 1878.78 607.208 1977 588.654C2075.21 570.1 2339.29 737.369 2436.3 717.886C2533.32 698.403 2441.35 541.544 2442.68 495.138" stroke="url(#paint8_linear_2474_2284)" stroke-width="2" stroke-linecap="round"/>
<path d="M400.729 1355.29C373.325 1291.46 191.428 1079.23 269.191 1048.91C346.954 1018.58 684.284 1231.27 773.99 1209.72C863.697 1188.16 633.364 984.081 699.78 945.424C766.197 906.767 1012.04 1052.3 1092.79 1024.16C1173.54 996.025 974.976 815.274 1087.37 810.376C1199.77 805.478 1522.89 1007.74 1632.3 1000.65C1741.72 993.559 1550.91 818.507 1612.55 776.343C1674.19 734.178 1862.95 837.793 1928.17 798.258C1993.39 758.724 1833.53 606.384 1925.62 586.579C2017.72 566.774 2279.33 723.877 2370.23 703.195C2461.13 682.514 2363.67 532.284 2361.94 487.307" stroke="url(#paint9_linear_2474_2284)" stroke-width="2" stroke-linecap="round"/>
<path d="M479.378 1357.81C449.267 1296.59 263.065 1094.7 334.844 1063.92C406.623 1033.15 740.246 1232.61 823.917 1210.1C907.588 1187.58 675.983 994.472 736.464 955.851C796.945 917.23 1039.48 1053.43 1114.23 1024.72C1188.98 996.008 989.007 824.868 1095.27 818.046C1201.54 811.224 1521.01 1000.86 1624.3 991.973C1727.6 983.086 1535.35 817.315 1591.08 775.39C1646.8 733.466 1832.49 830.181 1891.78 790.735C1951.07 751.288 1789.63 606.909 1875.68 586.046C1961.73 565.183 2219.96 712.282 2304.82 690.593C2389.68 668.904 2287.55 525.409 2283.01 481.94" stroke="url(#paint10_linear_2474_2284)" stroke-width="2" stroke-linecap="round"/>
<path d="M555.751 1357.95C523.277 1299.38 333.936 1107.87 399.879 1076.84C465.821 1045.8 794.542 1232.25 872.276 1208.97C950.011 1185.69 718.264 1003.49 773.005 965.087C827.746 926.682 1066.14 1053.72 1135.03 1024.62C1203.92 995.524 1003.54 833.961 1103.68 825.416C1203.82 816.871 1518.51 994.091 1615.7 983.607C1712.89 973.123 1520.17 816.602 1570.2 775.094C1620.22 733.586 1802.25 823.55 1855.81 784.369C1909.37 745.188 1747.2 608.755 1827.29 587.025C1907.39 565.295 2161.35 702.571 2240.26 680.066C2319.17 657.56 2213.2 520.887 2206.08 478.998" stroke="url(#paint11_linear_2474_2284)" stroke-width="2" stroke-linecap="round"/>
<path d="M629.657 1355.74C595.167 1299.89 403.836 1118.78 464.106 1087.66C524.375 1056.54 847.038 1230.22 918.951 1206.36C990.865 1182.5 760.084 1011.15 809.292 973.135C858.499 935.119 1091.97 1053.19 1155.15 1023.89C1218.33 994.585 1018.52 842.541 1112.56 832.474C1206.6 822.407 1515.4 987.449 1606.53 975.567C1697.65 963.685 1505.42 816.36 1549.97 775.44C1594.52 734.521 1772.33 817.896 1820.37 779.155C1868.41 740.413 1706.33 611.89 1780.57 589.482C1854.82 567.074 2103.65 694.73 2176.73 671.596C2249.81 648.463 2140.8 518.68 2131.35 478.439" stroke="url(#paint12_linear_2474_2284)" stroke-width="2" stroke-linecap="round"/>
<path d="M700.919 1351.23C664.757 1298.15 472.569 1127.44 527.343 1096.41C582.117 1065.39 897.608 1226.57 963.832 1202.32C1030.06 1178.07 801.321 1017.45 845.217 979.998C889.113 942.542 1116.9 1051.87 1174.53 1022.53C1232.17 993.203 1033.89 850.598 1121.87 839.209C1209.85 827.819 1511.72 980.948 1596.83 967.866C1681.95 954.784 1491.11 816.579 1530.43 776.415C1569.75 736.252 1742.8 813.212 1785.55 775.08C1828.3 736.947 1667.12 616.278 1735.63 593.379C1804.15 570.48 2047.05 688.74 2114.41 665.164C2181.78 641.588 2070.55 518.745 2059 480.213" stroke="url(#paint13_linear_2474_2284)" stroke-width="2" stroke-linecap="round"/>
<path d="M769.364 1344.5C731.873 1294.21 539.942 1133.86 589.411 1103.11C638.879 1072.35 946.132 1221.35 1006.81 1196.88C1067.49 1172.42 841.858 1022.41 880.675 985.682C919.493 948.951 1140.87 1049.76 1193.14 1020.57C1245.41 991.392 1049.6 858.12 1131.58 845.608C1213.56 833.096 1507.47 974.602 1586.65 960.517C1665.83 946.433 1477.31 817.25 1511.64 778.003C1545.97 738.756 1713.75 809.491 1751.45 772.131C1789.15 734.771 1629.66 621.881 1692.58 598.675C1755.5 575.469 1991.68 684.578 2053.48 660.743C2115.28 636.908 2002.61 521.033 1989.23 484.267" stroke="url(#paint14_linear_2474_2284)" stroke-width="2" stroke-linecap="round"/>
<path d="M834.827 1335.61C796.349 1288.14 605.765 1138.09 650.133 1107.78C694.501 1077.46 992.494 1214.58 1047.79 1190.09C1103.09 1165.59 881.578 1026.04 915.562 990.197C949.547 954.35 1163.82 1046.89 1210.92 1018.02C1258.02 989.163 1065.58 865.098 1141.64 851.662C1217.71 838.227 1502.7 968.425 1576.03 953.534C1649.36 938.643 1464.03 818.361 1493.64 780.186C1523.25 742.011 1685.28 806.723 1718.17 770.294C1751.06 733.865 1594.03 628.66 1651.52 605.329C1709 581.997 1937.7 682.217 1994.09 658.303C2050.48 634.39 1937.17 525.494 1922.19 490.544" stroke="url(#paint15_linear_2474_2284)" stroke-width="2" stroke-linecap="round"/>
<path d="M897.154 1324.62C858.026 1280 669.857 1140.15 709.341 1110.44C748.824 1080.73 1036.59 1206.34 1086.68 1181.99C1136.77 1157.64 920.371 1028.36 949.778 993.554C979.185 958.745 1185.7 1043.28 1227.83 1014.91C1269.97 986.534 1081.78 871.524 1152.03 857.362C1222.27 843.199 1497.41 962.431 1565.01 946.928C1632.6 931.425 1451.31 819.901 1476.48 782.947C1501.64 745.994 1657.45 804.896 1685.79 769.551C1714.14 734.206 1560.33 636.571 1612.54 613.292C1664.75 590.013 1885.26 681.627 1936.42 657.812C1987.57 633.997 1874.39 532.07 1858.07 498.98" stroke="url(#paint16_linear_2474_2284)" stroke-width="2" stroke-linecap="round"/>
<path d="M956.195 1311.6C916.751 1269.84 732.036 1140.09 766.865 1111.14C801.694 1082.18 1078.3 1196.67 1123.37 1172.63C1168.45 1148.6 958.123 1029.39 983.22 995.766C1008.32 962.144 1206.45 1038.96 1243.84 1011.24C1281.23 983.519 1098.15 877.39 1162.69 862.697C1227.23 848.003 1491.65 956.635 1553.63 940.712C1615.6 924.789 1439.19 821.857 1460.19 786.267C1481.19 750.678 1630.35 803.997 1654.42 769.882C1678.49 735.768 1528.61 645.569 1575.73 622.517C1622.86 599.465 1834.51 682.776 1880.61 659.233C1926.71 635.689 1814.42 540.7 1797.01 509.508" stroke="url(#paint17_linear_2474_2284)" stroke-width="2" stroke-linecap="round"/>
<path d="M1011.81 1296.64C972.38 1257.74 792.129 1137.93 822.544 1109.9C852.959 1081.86 1117.54 1185.62 1157.8 1162.07C1198.06 1138.52 994.728 1029.15 1015.79 996.85C1036.85 964.554 1226.03 1033.96 1258.9 1007.05C1291.78 980.133 1114.63 882.691 1173.6 867.659C1232.56 852.627 1485.43 951.047 1541.93 934.894C1598.43 918.741 1427.69 824.213 1444.81 790.124C1461.94 756.034 1604.05 804.009 1624.13 771.265C1644.21 738.521 1498.96 655.607 1541.19 632.952C1583.41 610.297 1785.58 685.625 1826.83 662.521C1868.07 639.418 1757.42 551.319 1739.16 522.056" stroke="url(#paint18_linear_2474_2284)" stroke-width="2" stroke-linecap="round"/>
<path d="M1063.87 1279.81C1024.78 1243.76 849.973 1133.74 876.225 1106.77C902.477 1079.8 1154.22 1173.26 1189.88 1150.35C1225.54 1127.45 1030.08 1027.66 1047.4 996.824C1064.71 965.99 1244.38 1028.31 1272.99 1002.35C1301.59 976.396 1131.16 887.421 1184.7 872.241C1238.24 857.061 1478.78 945.682 1529.97 929.485C1581.15 913.289 1416.84 826.957 1430.39 794.496C1443.94 762.036 1578.64 804.917 1595.01 773.677C1611.38 742.436 1471.43 666.635 1508.98 644.543C1546.52 622.45 1738.61 690.133 1775.21 667.634C1811.81 645.135 1703.53 563.858 1684.67 536.548" stroke="url(#paint19_linear_2474_2284)" stroke-width="2" stroke-linecap="round"/>
<path d="M1112.25 1261.21C1073.82 1228 905.406 1127.56 927.757 1101.79C950.108 1076.03 1188.25 1159.64 1219.54 1137.54C1250.83 1115.44 1064.09 1024.95 1077.95 995.708C1091.81 966.464 1261.47 1022.02 1286.06 997.172C1310.65 972.324 1147.68 891.577 1195.96 876.436C1244.23 861.295 1471.74 940.551 1517.78 924.494C1563.82 908.437 1406.67 830.071 1416.95 799.362C1427.23 768.653 1554.17 806.7 1567.13 777.089C1580.1 747.479 1446.1 678.601 1479.18 657.232C1512.26 635.864 1693.72 696.255 1725.91 674.521C1758.09 652.786 1652.88 578.242 1633.66 552.905" stroke="url(#paint20_linear_2474_2284)" stroke-width="2" stroke-linecap="round"/>
<path d="M1156.85 1240.92C1119.38 1210.52 958.277 1119.44 976.997 1095.02C995.718 1070.6 1219.55 1144.84 1246.71 1123.7C1273.87 1102.55 1096.65 1021.06 1107.36 993.526C1118.06 965.993 1277.26 1015.14 1298.09 991.537C1318.92 967.935 1164.15 895.157 1207.34 880.238C1250.53 865.319 1464.33 935.665 1505.41 919.927C1546.49 904.19 1397.2 833.541 1404.53 804.697C1411.86 775.852 1530.73 809.336 1540.59 781.474C1550.45 753.613 1423.02 691.451 1451.86 670.962C1480.71 650.473 1651.05 703.944 1679.05 683.128C1707.05 662.311 1605.6 594.394 1586.27 571.043" stroke="url(#paint21_linear_2474_2284)" stroke-width="2" stroke-linecap="round"/>
<path d="M1197.56 1219.03C1161.36 1191.42 1008.43 1109.45 1023.8 1086.5C1039.17 1063.55 1248.06 1128.92 1271.33 1108.88C1294.61 1088.84 1127.68 1016.01 1135.53 990.304C1143.39 964.594 1291.71 1007.69 1309.05 985.47C1326.4 963.249 1180.5 898.159 1218.8 883.643C1257.1 869.126 1456.57 931.036 1492.9 915.793C1529.22 900.55 1388.46 837.349 1393.15 810.476C1397.85 783.603 1508.37 812.803 1515.44 786.802C1522.5 760.801 1402.22 705.131 1427.08 685.672C1451.94 666.213 1610.69 713.148 1634.76 693.399C1658.82 673.649 1561.8 612.232 1542.6 590.873" stroke="url(#paint22_linear_2474_2284)" stroke-width="2" stroke-linecap="round"/>
<path d="M1234.27 1195.64C1199.64 1170.77 1055.74 1097.64 1068.05 1076.29C1080.36 1054.94 1273.7 1111.94 1293.35 1093.15C1313.01 1074.35 1157.08 1009.85 1162.4 986.069C1167.73 962.288 1304.78 999.713 1318.92 979C1333.07 958.287 1196.68 900.585 1230.3 886.646C1263.92 872.708 1448.51 926.673 1480.29 912.095C1512.07 897.518 1380.46 841.477 1382.85 816.674C1385.24 791.87 1487.16 817.075 1491.75 793.038C1496.35 769.002 1383.77 719.583 1404.89 701.298C1426.02 683.014 1572.77 723.813 1593.16 705.273C1613.55 686.733 1521.6 631.674 1502.77 612.306" stroke="url(#paint23_linear_2474_2284)" stroke-width="2" stroke-linecap="round"/>
<path d="M1266.92 1170.85C1234.15 1148.68 1100.07 1084.09 1109.61 1064.45C1119.15 1044.81 1296.41 1093.99 1312.72 1076.57C1329.03 1059.15 1184.77 1002.61 1187.88 980.852C1191 959.098 1316.44 991.236 1327.67 972.152C1338.91 953.067 1212.64 902.435 1241.8 889.245C1270.96 876.055 1440.17 922.585 1467.64 908.839C1495.11 895.093 1373.24 845.907 1373.65 823.264C1374.05 800.62 1467.16 822.126 1469.6 800.149C1472.04 778.173 1367.69 734.748 1385.35 717.777C1403.01 700.805 1537.39 735.88 1554.37 718.686C1571.35 701.492 1485.1 652.629 1466.87 635.246" stroke="url(#paint24_linear_2474_2284)" stroke-width="2" stroke-linecap="round"/>
<path d="M1295.42 1144.75C1264.78 1125.23 1141.29 1068.87 1148.37 1051.05C1155.45 1033.23 1316.16 1075.12 1329.39 1059.21C1342.63 1043.3 1210.67 994.322 1211.9 974.685C1213.13 955.048 1326.67 982.297 1335.29 964.954C1343.91 947.611 1228.33 903.715 1253.26 891.439C1278.2 879.163 1431.58 918.782 1454.98 906.028C1478.37 893.274 1366.79 850.621 1365.56 830.219C1364.32 809.817 1448.44 827.927 1449.05 808.098C1449.66 788.27 1354.03 750.569 1368.5 735.042C1382.97 719.515 1504.64 749.288 1518.49 733.571C1532.34 717.853 1452.38 675.008 1434.98 659.597" stroke="url(#paint25_linear_2474_2284)" stroke-width="2" stroke-linecap="round"/>
<path d="M1319.7 1117.46C1291.47 1100.52 1179.29 1052.05 1184.21 1036.15C1189.14 1020.25 1332.88 1055.42 1343.33 1041.14C1353.78 1026.86 1234.71 985.042 1234.38 967.603C1234.05 950.164 1335.44 972.93 1341.75 957.434C1348.05 941.939 1243.69 904.429 1264.65 893.226C1285.61 882.024 1422.77 915.27 1442.35 903.663C1461.92 892.056 1361.15 855.598 1358.61 837.511C1356.07 819.424 1431.03 834.447 1430.14 816.846C1429.26 799.245 1342.82 766.983 1354.37 753.027C1365.93 739.07 1474.62 763.974 1485.62 749.856C1496.63 735.738 1423.54 698.717 1407.2 685.259" stroke="url(#paint26_linear_2474_2284)" stroke-width="2" stroke-linecap="round"/>
<path d="M1339.19 1091.16C1313.65 1076.65 1213.48 1035.54 1216.6 1021.5C1219.72 1007.46 1346.17 1036.45 1354.18 1023.75C1362.18 1011.06 1256.54 975.898 1255.02 960.572C1253.51 945.247 1342.55 963.896 1346.89 950.19C1351.24 936.485 1258.59 904.914 1275.87 894.785C1293.15 884.656 1413.79 912.037 1429.85 901.57C1445.91 891.104 1356.43 860.41 1352.96 844.545C1349.49 828.68 1415.2 840.878 1413.19 825.418C1411.18 809.957 1334.36 782.759 1343.34 770.336C1352.32 757.912 1447.81 778.343 1456.3 765.784C1464.79 753.226 1399.14 721.665 1384.1 710.055" stroke="url(#paint27_linear_2474_2284)" stroke-width="2" stroke-linecap="round"/>
<path d="M1354.44 1063.33C1331.85 1051.2 1244.36 1017.17 1245.99 1005.11C1247.63 993.047 1356.43 1016.4 1362.28 1005.44C1368.13 994.475 1276.45 965.596 1274.08 952.491C1271.7 939.387 1348.19 954.321 1350.88 942.535C1353.57 930.749 1273.11 904.793 1286.97 895.919C1300.84 887.045 1404.62 909.089 1417.43 899.94C1430.24 890.791 1352.52 865.55 1348.46 852.005C1344.4 838.461 1400.73 848.142 1397.93 834.928C1395.14 821.713 1328.35 799.318 1335.04 788.576C1341.73 777.834 1423.79 794.218 1430.06 783.366C1436.34 772.514 1378.67 746.253 1365.15 736.487" stroke="url(#paint28_linear_2474_2284)" stroke-width="2" stroke-linecap="round"/>
<path d="M1353.55 1029.13C1339.22 1020.71 1283.85 998.438 1284.77 988.739C1285.68 979.041 1354.38 991.627 1357.97 982.571C1361.55 973.514 1303.58 955.576 1301.97 945.267C1300.36 934.958 1348.64 942.626 1350.23 933.087C1351.82 923.549 1300.94 907.32 1309.59 899.483C1318.23 891.647 1383.76 903.469 1391.74 895.472C1399.72 887.475 1350.58 871.663 1347.9 861.098C1345.22 850.532 1380.77 855.129 1378.89 844.756C1377.01 834.383 1334.77 820.234 1338.88 811.306C1343 802.378 1394.8 810.893 1398.66 801.901C1402.51 792.908 1365.97 775.175 1357.37 768.142" stroke="url(#paint29_linear_2474_2284)" stroke-width="2" stroke-linecap="round"/>
<path d="M1353.04 995.37C1343.93 989.735 1308.85 975.605 1309.32 968.321C1309.79 961.037 1353.13 967.332 1355.27 960.408C1357.42 953.483 1320.77 942.708 1319.63 935.083C1318.5 927.458 1348.95 931.002 1349.84 923.808C1350.72 916.614 1318.54 906.794 1323.89 900.551C1329.24 894.309 1370.57 900.177 1375.5 893.845C1380.42 887.513 1349.34 877.926 1347.53 870.157C1345.73 862.389 1368.13 864.216 1366.83 856.555C1365.53 848.894 1338.8 840.238 1341.29 833.385C1343.77 826.532 1376.44 830.55 1378.76 823.662C1381.07 816.773 1357.9 805.182 1352.41 800.319" stroke="url(#paint30_linear_2474_2284)" stroke-width="2" stroke-linecap="round"/>
<path d="M1355.58 962.97C1349.15 959.281 1324.71 950.159 1324.72 945.262C1324.73 940.365 1354.46 944.136 1355.63 939.463C1356.8 934.789 1331.43 927.937 1330.33 922.828C1329.24 917.718 1350.09 919.777 1350.39 914.936C1350.69 910.094 1328.4 903.838 1331.77 899.588C1335.15 895.339 1363.5 898.845 1366.58 894.54C1369.66 890.235 1348.12 884.123 1346.57 878.924C1345.01 873.725 1360.32 874.716 1359.11 869.584C1357.91 864.452 1339.37 858.919 1340.77 854.29C1342.17 849.661 1364.55 852.016 1365.84 847.364C1367.13 842.713 1350.88 835.171 1346.94 831.963" stroke="url(#paint31_linear_2474_2284)" stroke-width="2" stroke-linecap="round"/>
<path d="M1353.92 930.092C1350.56 928.289 1337.9 923.903 1337.75 921.436C1337.6 918.968 1352.77 920.614 1353.21 918.249C1353.66 915.885 1340.6 912.65 1339.89 910.085C1339.18 907.52 1349.79 908.379 1349.79 905.938C1349.79 903.496 1338.32 900.535 1339.89 898.365C1341.46 896.196 1355.92 897.719 1357.35 895.524C1358.77 893.329 1347.68 890.434 1346.73 887.828C1345.78 885.222 1353.56 885.59 1352.79 883.015C1352.01 880.44 1342.46 877.811 1343.03 875.467C1343.59 873.123 1354.99 874.118 1355.49 871.764C1356 869.409 1347.54 865.749 1345.45 864.166" stroke="url(#paint32_linear_2474_2284)" stroke-width="2" stroke-linecap="round"/>
<defs>
<linearGradient id="paint0_linear_2474_2284" x1="183653" y1="-15395" x2="187580" y2="29171.4" gradientUnits="userSpaceOnUse">
<stop stop-color="white"/>
<stop offset="1" stop-color="#1F89DB"/>
</linearGradient>
<linearGradient id="paint1_linear_2474_2284" x1="175276" y1="-18510.9" x2="180089" y2="25112.9" gradientUnits="userSpaceOnUse">
<stop stop-color="white"/>
<stop offset="1" stop-color="#1F89DB"/>
</linearGradient>
<linearGradient id="paint2_linear_2474_2284" x1="166866" y1="-21372.6" x2="172554" y2="21317.4" gradientUnits="userSpaceOnUse">
<stop stop-color="white"/>
<stop offset="1" stop-color="#1F89DB"/>
</linearGradient>
<linearGradient id="paint3_linear_2474_2284" x1="158447" y1="-23979.6" x2="165002" y2="17780.1" gradientUnits="userSpaceOnUse">
<stop stop-color="white"/>
<stop offset="1" stop-color="#1F89DB"/>
</linearGradient>
<linearGradient id="paint4_linear_2474_2284" x1="150041" y1="-26331.5" x2="157459" y2="14495.5" gradientUnits="userSpaceOnUse">
<stop stop-color="white"/>
<stop offset="1" stop-color="#1F89DB"/>
</linearGradient>
<linearGradient id="paint5_linear_2474_2284" x1="141672" y1="-28428.5" x2="149949" y2="11457.6" gradientUnits="userSpaceOnUse">
<stop stop-color="white"/>
<stop offset="1" stop-color="#1F89DB"/>
</linearGradient>
<linearGradient id="paint6_linear_2474_2284" x1="133364" y1="-30271.4" x2="142495" y2="8659.58" gradientUnits="userSpaceOnUse">
<stop stop-color="white"/>
<stop offset="1" stop-color="#1F89DB"/>
</linearGradient>
<linearGradient id="paint7_linear_2474_2284" x1="125138" y1="-31861.2" x2="135120" y2="6094.21" gradientUnits="userSpaceOnUse">
<stop stop-color="white"/>
<stop offset="1" stop-color="#1F89DB"/>
</linearGradient>
<linearGradient id="paint8_linear_2474_2284" x1="117018" y1="-33199.6" x2="127847" y2="3753.28" gradientUnits="userSpaceOnUse">
<stop stop-color="white"/>
<stop offset="1" stop-color="#1F89DB"/>
</linearGradient>
<linearGradient id="paint9_linear_2474_2284" x1="109024" y1="-34288.8" x2="120694" y2="1627.77" gradientUnits="userSpaceOnUse">
<stop stop-color="white"/>
<stop offset="1" stop-color="#1F89DB"/>
</linearGradient>
<linearGradient id="paint10_linear_2474_2284" x1="101178" y1="-35131.2" x2="113683" y2="-292.177" gradientUnits="userSpaceOnUse">
<stop stop-color="white"/>
<stop offset="1" stop-color="#1F89DB"/>
</linearGradient>
<linearGradient id="paint11_linear_2474_2284" x1="93500.9" y1="-35730.1" x2="106829" y2="-2017.34" gradientUnits="userSpaceOnUse">
<stop stop-color="white"/>
<stop offset="1" stop-color="#1F89DB"/>
</linearGradient>
<linearGradient id="paint12_linear_2474_2284" x1="86012.2" y1="-36089" x2="100149" y2="-3559.21" gradientUnits="userSpaceOnUse">
<stop stop-color="white"/>
<stop offset="1" stop-color="#1F89DB"/>
</linearGradient>
<linearGradient id="paint13_linear_2474_2284" x1="78731.7" y1="-36212.1" x2="93655.2" y2="-4930.11" gradientUnits="userSpaceOnUse">
<stop stop-color="white"/>
<stop offset="1" stop-color="#1F89DB"/>
</linearGradient>
<linearGradient id="paint14_linear_2474_2284" x1="71678.1" y1="-36103.9" x2="87359.3" y2="-6142.85" gradientUnits="userSpaceOnUse">
<stop stop-color="white"/>
<stop offset="1" stop-color="#1F89DB"/>
</linearGradient>
<linearGradient id="paint15_linear_2474_2284" x1="64869.6" y1="-35769.5" x2="81269.3" y2="-7210.53" gradientUnits="userSpaceOnUse">
<stop stop-color="white"/>
<stop offset="1" stop-color="#1F89DB"/>
</linearGradient>
<linearGradient id="paint16_linear_2474_2284" x1="58323.8" y1="-35214.5" x2="75389.9" y2="-8146.16" gradientUnits="userSpaceOnUse">
<stop stop-color="white"/>
<stop offset="1" stop-color="#1F89DB"/>
</linearGradient>
<linearGradient id="paint17_linear_2474_2284" x1="52057.2" y1="-34444.8" x2="69722.4" y2="-8962.18" gradientUnits="userSpaceOnUse">
<stop stop-color="white"/>
<stop offset="1" stop-color="#1F89DB"/>
</linearGradient>
<linearGradient id="paint18_linear_2474_2284" x1="46085.8" y1="-33466.9" x2="64264.6" y2="-9669.67" gradientUnits="userSpaceOnUse">
<stop stop-color="white"/>
<stop offset="1" stop-color="#1F89DB"/>
</linearGradient>
<linearGradient id="paint19_linear_2474_2284" x1="40424.7" y1="-32287.7" x2="59009.9" y2="-10277.5" gradientUnits="userSpaceOnUse">
<stop stop-color="white"/>
<stop offset="1" stop-color="#1F89DB"/>
</linearGradient>
<linearGradient id="paint20_linear_2474_2284" x1="35088.4" y1="-30914.5" x2="53948.4" y2="-10791.3" gradientUnits="userSpaceOnUse">
<stop stop-color="white"/>
<stop offset="1" stop-color="#1F89DB"/>
</linearGradient>
<linearGradient id="paint21_linear_2474_2284" x1="30090.2" y1="-29355" x2="49066.2" y2="-11212.1" gradientUnits="userSpaceOnUse">
<stop stop-color="white"/>
<stop offset="1" stop-color="#1F89DB"/>
</linearGradient>
<linearGradient id="paint22_linear_2474_2284" x1="25442.9" y1="-27617.4" x2="44347.2" y2="-11535" gradientUnits="userSpaceOnUse">
<stop stop-color="white"/>
<stop offset="1" stop-color="#1F89DB"/>
</linearGradient>
<linearGradient id="paint23_linear_2474_2284" x1="21158.1" y1="-25710.1" x2="39773.8" y2="-11748.1" gradientUnits="userSpaceOnUse">
<stop stop-color="white"/>
<stop offset="1" stop-color="#1F89DB"/>
</linearGradient>
<linearGradient id="paint24_linear_2474_2284" x1="17247" y1="-23642" x2="35329.1" y2="-11831.3" gradientUnits="userSpaceOnUse">
<stop stop-color="white"/>
<stop offset="1" stop-color="#1F89DB"/>
</linearGradient>
<linearGradient id="paint25_linear_2474_2284" x1="13719.4" y1="-21422.1" x2="30999.6" y2="-11755.9" gradientUnits="userSpaceOnUse">
<stop stop-color="white"/>
<stop offset="1" stop-color="#1F89DB"/>
</linearGradient>
<linearGradient id="paint26_linear_2474_2284" x1="10584.8" y1="-19060" x2="26777.9" y2="-11485.2" gradientUnits="userSpaceOnUse">
<stop stop-color="white"/>
<stop offset="1" stop-color="#1F89DB"/>
</linearGradient>
<linearGradient id="paint27_linear_2474_2284" x1="7903.16" y1="-16770.4" x2="22729.7" y2="-11198.3" gradientUnits="userSpaceOnUse">
<stop stop-color="white"/>
<stop offset="1" stop-color="#1F89DB"/>
</linearGradient>
<linearGradient id="paint28_linear_2474_2284" x1="5620.09" y1="-14306.9" x2="18772.9" y2="-10549.6" gradientUnits="userSpaceOnUse">
<stop stop-color="white"/>
<stop offset="1" stop-color="#1F89DB"/>
</linearGradient>
<linearGradient id="paint29_linear_2474_2284" x1="3901.43" y1="-11452.1" x2="12318.8" y2="-9681.62" gradientUnits="userSpaceOnUse">
<stop stop-color="white"/>
<stop offset="1" stop-color="#1F89DB"/>
</linearGradient>
<linearGradient id="paint30_linear_2474_2284" x1="2809.98" y1="-8439.54" x2="8137.66" y2="-7589.71" gradientUnits="userSpaceOnUse">
<stop stop-color="white"/>
<stop offset="1" stop-color="#1F89DB"/>
</linearGradient>
<linearGradient id="paint31_linear_2474_2284" x1="1948.9" y1="-5389.72" x2="5621.91" y2="-5027.82" gradientUnits="userSpaceOnUse">
<stop stop-color="white"/>
<stop offset="1" stop-color="#1F89DB"/>
</linearGradient>
<linearGradient id="paint32_linear_2474_2284" x1="1455.21" y1="-2275.41" x2="3328.37" y2="-2206.58" gradientUnits="userSpaceOnUse">
<stop offset="0.45" stop-color="#DBB11F" stop-opacity="0.24"/>
<stop offset="0.625" stop-color="#F42A8B"/>
</linearGradient>
</defs>
</svg>